#define close_hover_width 10
#define close_hover_height 10
static unsigned char close_hover_bits[] = {
0xff, 0x03, 0xff, 0x03, 0x03, 0x03, 0x03, 0x03, 0x03, 0x03, 0x03, 0x03, 0x03, 0x03, 0x03, 0x03, 0xff, 0x03, 0xff, 0x03 };
