#define max_toggled_width 8
#define max_toggled_height 8
static unsigned char max_toggled_bits[] = {
0xdb, 0xdb, 0x03, 0xc3, 0xc3, 0x03, 0xff, 0xff };
