#define max_toggled_hover_width 10
#define max_toggled_hover_height 10
static unsigned char max_toggled_hover_bits[] = {
0x73, 0x03, 0x73, 0x03, 0x03, 0x00, 0x03, 0x03, 0x03, 0x03, 0x03, 0x03, 0x03, 0x00, 0x03, 0x00, 0xff, 0x03, 0xff, 0x03 };
