#define max_hover_width 10
#define max_hover_height 10
static unsigned char max_hover_bits[] = {
0xff, 0x03, 0xff, 0x03, 0x00, 0x03, 0x00, 0x03, 0x03, 0x03, 0x03, 0x03, 0x03, 0x03, 0x00, 0x03, 0x3b, 0x03, 0x3b, 0x03 };
